<?xml version="1.0" encoding="UTF-8"?>
<svg id="Capa_1" data-name="Capa 1" xmlns="http://www.w3.org/2000/svg" viewBox="0 0 283.86 53.41">
  <defs>
    <style>
      .cls-1 {
        fill: #fff;
        stroke: red;
        stroke-miterlimit: 10;
      }

      .cls-2 {
        fill: red;
        stroke-width: 0px;
      }
    </style>
  </defs>
  <rect class="cls-1" x=".5" y=".5" width="282.86" height="52.41" rx="10.5" ry="10.5"/>
  <g>
    <path class="cls-2" d="M27.51,14.33c1.27,0,2.58.11,3.91.34,1.33.23,2.51.55,3.53.96l-1.78,6.39c-1.09-.3-2.17-.53-3.23-.7s-2.02-.26-2.89-.26c-.61,0-1.11.03-1.49.1-.38.07-.67.17-.87.29-.2.12-.34.28-.41.46s-.1.38-.1.58c0,.36.23.67.7.9.47.24,1.05.48,1.74.73.69.25,1.45.54,2.25.85.81.32,1.56.73,2.25,1.25.69.51,1.27,1.16,1.74,1.95.47.79.7,1.76.7,2.92,0,1.48-.29,2.82-.87,4.03-.58,1.21-1.39,2.24-2.42,3.09-1.04.85-2.27,1.51-3.69,1.96-1.42.46-2.98.68-4.66.68-1.5,0-2.95-.15-4.35-.46s-2.66-.76-3.77-1.35l1.88-6.62c1.16.57,2.32,1.01,3.47,1.33,1.15.32,2.34.48,3.57.48.96,0,1.63-.12,2.03-.36.4-.24.6-.59.6-1.04,0-.39-.23-.71-.7-.96-.47-.25-1.05-.5-1.74-.75-.69-.25-1.45-.53-2.25-.85-.81-.32-1.56-.74-2.25-1.26-.69-.52-1.27-1.18-1.74-1.96-.47-.79-.7-1.77-.7-2.95,0-1.3.23-2.53.7-3.7.47-1.17,1.18-2.21,2.13-3.11.96-.9,2.16-1.62,3.6-2.15,1.45-.53,3.15-.8,5.1-.8Z"/>
    <path class="cls-2" d="M57.32,31.27c-.46,3.12-1.69,5.5-3.71,7.14s-4.88,2.46-8.59,2.46c-3.32,0-5.8-.65-7.43-1.96-1.63-1.31-2.44-3.22-2.44-5.72,0-.32.01-.63.03-.94.02-.31.06-.63.1-.97l2.32-16.49h8.4l-2.36,16.73c-.02.14-.04.26-.05.38-.01.11-.02.23-.02.34,0,.66.18,1.14.55,1.43.36.3.98.44,1.84.44,1,0,1.71-.2,2.12-.6.41-.4.68-1.06.82-2l2.36-16.73h8.37l-2.32,16.49ZM57.29,9.24l-5.74,4.23h-6.04l2.29-4.23h9.49Z"/>
    <path class="cls-2" d="M72.21,14.77c3.53,0,6.09.61,7.68,1.84,1.59,1.23,2.39,3.07,2.39,5.53,0,1.69-.24,3.21-.72,4.58-.48,1.37-1.23,2.53-2.25,3.5-1.02.97-2.33,1.71-3.93,2.24-1.59.52-3.52.79-5.77.79h-1.57l-.99,7.14h-8.37l3.59-25.61h9.94ZM68.9,27.17h1.57c.5,0,.92-.03,1.26-.09.34-.06.63-.19.85-.39.23-.2.41-.5.55-.89.14-.39.25-.91.34-1.57.05-.27.08-.53.1-.77.02-.24.03-.45.03-.63,0-.71-.17-1.17-.51-1.4-.34-.23-.95-.34-1.81-.34h-1.54l-.85,6.08Z"/>
    <path class="cls-2" d="M101.51,33.83l-1.02,6.56h-18.68l3.59-25.61h18.23l-.79,6.62h-10.01l-.44,3h8.16l-.82,5.94h-8.16l-.51,3.48h10.45Z"/>
    <path class="cls-2" d="M116.53,14.77c3.28,0,5.75.55,7.43,1.64,1.67,1.09,2.51,2.85,2.51,5.26,0,1-.11,1.96-.32,2.87s-.53,1.75-.94,2.51-.89,1.43-1.45,2c-.56.57-1.18,1.01-1.86,1.33l3.79,10.01h-9.73l-1.98-8.33h-1.67l-1.16,8.33h-8.37l3.59-25.61h10.18ZM113.12,26.28h1.84c.43,0,.82-.04,1.16-.12.34-.08.63-.24.87-.5.24-.25.42-.61.55-1.09.12-.48.19-1.12.19-1.91,0-.66-.15-1.09-.46-1.3-.31-.21-.83-.31-1.55-.31h-1.88l-.72,5.22Z"/>
    <path class="cls-2" d="M159.15,27.58c-.32,2.3-.83,4.28-1.52,5.94-.69,1.66-1.61,3.04-2.75,4.13-1.14,1.09-2.5,1.9-4.1,2.42-1.59.52-3.45.79-5.57.79-3.6,0-6.24-.81-7.94-2.44-1.7-1.63-2.54-4.1-2.54-7.43,0-.52.02-1.07.05-1.64.03-.57.1-1.16.19-1.78.64-4.46,2.07-7.78,4.3-9.95,2.23-2.17,5.45-3.26,9.66-3.26,3.62,0,6.27.79,7.96,2.37,1.68,1.58,2.53,4,2.53,7.26,0,.55-.02,1.12-.07,1.71-.05.59-.11,1.22-.2,1.88ZM150.34,27.54c.11-.77.2-1.46.26-2.07.06-.6.09-1.13.09-1.59,0-1.18-.21-1.96-.63-2.34-.42-.38-1.11-.56-2.07-.56-.66,0-1.21.09-1.66.26s-.82.5-1.13.97c-.31.48-.57,1.14-.79,2-.22.85-.43,1.96-.63,3.33-.11.75-.2,1.43-.26,2.03-.06.6-.09,1.13-.09,1.59,0,1.25.21,2.08.63,2.48.42.4,1.11.6,2.07.6.64,0,1.18-.09,1.64-.27.46-.18.84-.52,1.16-1.01.32-.49.59-1.17.8-2.03.22-.86.42-1.99.6-3.38Z"/>
    <path class="cls-2" d="M170.62,21.53l-.51,3.65h8.23l-.96,6.35h-8.16l-1.23,8.84h-8.37l3.59-25.61h18.2l-.82,6.76h-9.97Z"/>
    <path class="cls-2" d="M199.47,33.83l-1.02,6.56h-18.68l3.59-25.61h18.23l-.79,6.62h-10l-.44,3h8.16l-.82,5.94h-8.16l-.51,3.48h10.45Z"/>
    <path class="cls-2" d="M214.5,14.77c3.28,0,5.75.55,7.43,1.64,1.67,1.09,2.51,2.85,2.51,5.26,0,1-.11,1.96-.32,2.87-.22.91-.53,1.75-.94,2.51-.41.76-.89,1.43-1.45,2-.56.57-1.18,1.01-1.86,1.33l3.79,10.01h-9.73l-1.98-8.33h-1.67l-1.16,8.33h-8.37l3.59-25.61h10.18ZM211.08,26.28h1.84c.43,0,.82-.04,1.16-.12.34-.08.63-.24.87-.5.24-.25.42-.61.55-1.09.12-.48.19-1.12.19-1.91,0-.66-.15-1.09-.46-1.3-.31-.21-.83-.31-1.55-.31h-1.88l-.72,5.22Z"/>
    <path class="cls-2" d="M240.11,21.57l-2.63,18.82h-8.5l2.63-18.82h-5.94l1.13-6.8h20.08l-.79,6.8h-5.98Z"/>
    <path class="cls-2" d="M257.56,36.29h-6.52l-1.5,4.1h-8.84l11.78-25.61h10l4.81,25.61h-9.36l-.38-4.1ZM256.33,21.94c-.05.2-.11.42-.19.65-.08.23-.17.46-.26.68l-2.53,6.86h3.72l-.58-6.8c-.02-.25-.05-.48-.07-.7-.02-.22-.03-.45-.03-.7h-.07Z"/>
  </g>
</svg>